<svg width="70" height="71" viewBox="0 0 70 71" fill="none" xmlns="http://www.w3.org/2000/svg">
<path fill-rule="evenodd" clip-rule="evenodd" d="M45.3829 0.581634C41.1862 1.18101 37.2548 3.89266 35.1009 7.67379C34.7801 8.2369 33.8845 10.3931 33.1106 12.4653L31.7037 16.2328H31.1018H30.4998V15.4503C30.4998 14.8074 30.4379 14.6056 30.1535 14.3213C29.8248 13.9923 29.7229 13.9749 28.1432 13.9763C26.3039 13.978 23.1997 14.2806 21.702 14.6042C19.9846 14.9754 18.9214 15.8443 18.3648 17.332C17.6165 19.331 18.5228 21.5919 20.4521 22.5398C21.2436 22.9287 21.3197 22.9379 24.3056 23.007L27.3516 23.0776L25.6677 25.124C23.7705 27.4295 22.8466 28.7349 22.1881 30.0402C21.8264 30.7573 21.6898 30.9131 21.4984 30.8276C21.3671 30.769 20.72 30.5282 20.0605 30.2925C18.9642 29.9009 18.7041 29.8635 17.0274 29.858C14.9407 29.8509 13.8582 30.107 12.0899 31.026C10.7194 31.7381 8.72997 33.7261 8.03928 35.0736C6.66636 37.7518 6.45603 40.4286 7.39373 43.2861L7.69012 44.1895L5.8521 46.053C4.84103 47.0779 3.9053 48.1298 3.77269 48.3909C3.40111 49.1217 3.33805 50.2259 3.61963 51.0738L3.86072 51.8L3.30095 52.6869C1.96401 54.8045 0.977348 57.2095 0.435066 59.6725C0.170979 60.8718 0.125413 61.6222 0.0667271 65.7338L0 70.4264H1.12829H2.25673L2.32684 65.8044C2.40133 60.8841 2.45296 60.4395 3.22364 58.0776C3.63613 56.8132 4.62336 54.7518 5.25889 53.8278C5.63879 53.2754 5.71159 53.2311 6.03648 53.3546C6.56987 53.5575 7.3682 53.5201 8.15002 53.2558C8.71769 53.0639 9.20115 52.6709 10.786 51.1132L12.7268 49.2055L13.6074 49.5078C14.7168 49.8887 15.9307 50.1038 16.9704 50.1038C17.7411 50.1038 19.5715 49.8124 20.0957 49.6062C20.3233 49.5167 20.3427 49.6564 20.345 51.3942C20.3478 53.4895 20.5656 54.7923 21.1137 55.9897L21.4712 56.771V62.1358C21.4712 65.9352 21.5213 67.67 21.6427 68.0814C21.8717 68.8566 23.0403 70.0257 23.8152 70.2548C24.2232 70.3753 25.8829 70.4264 29.3977 70.4264C35.2058 70.4264 35.3311 70.4061 36.3259 69.299C37.1604 68.3707 37.2713 67.8924 37.2713 65.2235C37.2713 63.0469 37.2835 62.9466 37.5511 62.9466C37.7051 62.9466 38.8635 63.0401 40.1257 63.1544C44.492 63.5499 48.3918 63.6518 59.1727 63.6519L70 63.6522V62.5359V61.4195L57.3388 61.3548C42.7674 61.2801 40.9669 61.183 33.0391 60.0448C27.4862 59.2474 26.2751 58.8487 24.706 57.3014C23.7063 56.3157 23.1725 55.3805 22.8156 53.9905C22.5649 53.0138 22.5007 48.2691 22.7381 48.2691C23.0186 48.2691 24.8465 46.3996 25.4058 45.5407C26.3932 44.0247 27.1141 41.7994 27.1141 40.2677C27.1141 39.8235 27.1478 39.7791 27.4315 39.8484C28.0299 39.9947 33.5323 40.64 35.3991 40.7827C36.4255 40.8613 38.5948 40.9681 40.2198 41.0205L43.1741 41.1154L43.6242 40.6652C44.0543 40.2349 44.0698 40.1809 43.9767 39.4361C43.6335 36.6881 42.2876 33.9778 40.1734 31.7769C38.9121 30.4639 37.7939 29.6618 36.1156 28.8666C34.0358 27.8809 32.8879 27.6499 29.5415 27.5436L26.6789 27.4526L29.4477 24.0666L32.2165 20.6808L33.767 20.4328C37.8584 19.7784 44.099 19.1096 49.3329 18.7646C50.652 18.6775 55.8416 18.5732 60.8656 18.5325L70 18.4586V17.3286V16.1987L60.7245 16.2731C51.5047 16.3469 48.3766 16.4769 42.9141 17.0129C40.2776 17.2717 36.5361 17.7288 34.8117 18.003C34.1183 18.1132 33.5202 18.1725 33.4825 18.1347C33.3961 18.0483 36.0125 11.0173 36.6501 9.62236C37.9045 6.87796 40.3028 4.63175 43.1963 3.49115C45.2133 2.69617 45.4306 2.68446 58.236 2.68446H70V1.55542V0.426392L58.1147 0.443609C51.5778 0.453065 45.8484 0.515162 45.3829 0.581634ZM28.2426 17.0154C28.2426 17.6582 28.3046 17.8601 28.589 18.1444C28.8861 18.4418 29.0662 18.4909 29.8586 18.4909C30.5449 18.4909 30.7819 18.5404 30.7819 18.6837C30.7819 18.7897 30.4486 19.2939 30.0413 19.8043L29.3007 20.7322L25.5623 20.7401C22.0724 20.7474 21.7932 20.7292 21.3641 20.4674C20.0959 19.6939 20.0276 17.9447 21.2347 17.1536C21.8429 16.7547 24.8899 16.2959 27.2199 16.252L28.2426 16.2328V17.0154ZM33.2951 30.1866C35.3271 30.7899 37.3919 32.0497 38.7263 33.5007C39.9291 34.8085 41.1276 36.9626 41.4271 38.3548L41.5259 38.8135L40.915 38.8114C38.658 38.8039 32.426 38.2991 29.7944 37.9105L28.5953 37.7336L29.2301 37.5374C30.0623 37.2801 31.2215 36.136 31.4568 35.3395C31.8476 34.0162 31.5721 32.9613 30.5751 31.9639C29.1441 30.5325 27.342 30.536 25.8966 31.9731C25.4518 32.4153 25.1336 32.8718 25.0708 33.1577L24.9688 33.6229L24.2839 32.948L23.599 32.2731L24.2492 31.0137L24.8994 29.7543L28.5814 29.8172C31.8342 29.8728 32.3834 29.9159 33.2951 30.1866ZM49.7561 29.9125C48.4865 30.2197 47.3122 31.1817 46.729 32.3921C46.3182 33.2447 46.1694 35.4583 46.4363 36.7444C46.9789 39.3591 49.2016 41.5662 51.7863 42.0565C52.2514 42.1448 55.9266 42.2006 61.2727 42.2006H70V41.0716V39.9425H68.8714H67.7428V38.249V36.5554H68.8714H70V35.4264V34.2974H68.8714H67.7428V33.1683V32.0393H68.8714H70V30.9103V29.7812L60.0897 29.7956C54.6391 29.8037 49.9889 29.8562 49.7561 29.9125ZM19.3653 32.4527C21.0284 32.9695 22.8416 34.3851 23.6946 35.8328C25.0866 38.1955 25.1994 40.9406 24.0064 43.4192C22.8145 45.8958 20.3734 47.5625 17.5942 47.7975C16.608 47.8809 14.7718 47.6532 14.6343 47.4305C14.6001 47.3754 14.9659 46.9456 15.4471 46.4757L16.322 45.6213L17.3581 45.541C19.4098 45.3821 21.0738 44.244 22.0023 42.3643C22.4996 41.3578 22.5292 41.2221 22.5292 39.9499C22.5292 38.7291 22.487 38.5127 22.0827 37.6591C21.4614 36.347 20.6617 35.5298 19.3777 34.895C18.3704 34.397 18.2371 34.3679 16.9569 34.3679C15.6766 34.3679 15.5433 34.397 14.5361 34.895C12.6571 35.824 11.5195 37.4886 11.3607 39.5411L11.2804 40.5776L10.4264 41.4529C9.95659 41.9343 9.52547 42.2992 9.4682 42.2638C9.41106 42.2285 9.28748 41.744 9.19367 41.1873C8.51624 37.1696 11.2368 33.1647 15.264 32.251C16.4301 31.9865 18.1345 32.0703 19.3653 32.4527ZM51.9428 33.1683V34.2974H50.2499C48.4107 34.2974 48.4048 34.2943 48.7076 33.495C49.069 32.5407 49.8837 32.0533 51.1316 32.0448L51.9428 32.0393V33.1683ZM56.4571 33.1683V34.2974H55.3285H54.1999V33.1683V32.0393H55.3285H56.4571V33.1683ZM60.9714 33.1683V34.2974H59.8428H58.7142V33.1683V32.0393H59.8428H60.9714V33.1683ZM65.4857 33.1683V34.2974H64.3571H63.2285V33.1683V32.0393H64.3571H65.4857V33.1683ZM29.0249 33.5148C29.7247 34.2148 29.2289 35.4264 28.2426 35.4264C27.9678 35.4264 27.6786 35.2984 27.4604 35.0799C27.242 34.8616 27.1141 34.5723 27.1141 34.2974C27.1141 34.0224 27.242 33.7331 27.4604 33.5148C27.6786 33.2963 27.9678 33.1683 28.2426 33.1683C28.5175 33.1683 28.8066 33.2963 29.0249 33.5148ZM34.0901 33.3669C32.6668 33.987 32.3306 35.8798 33.4457 36.9955C35.0306 38.5811 37.6279 37.1609 37.2109 34.9365C36.9613 33.6063 35.3736 32.8076 34.0901 33.3669ZM18.1029 36.7729C18.4425 36.8926 18.9879 37.253 19.3149 37.5738C20.6209 38.8547 20.6829 40.7947 19.4595 42.1053C19.1305 42.4579 18.9492 42.5812 19.0083 42.4123C19.2429 41.7419 19.2396 40.7979 19 40.0766C18.3979 38.2629 16.3725 37.2846 14.4881 37.8973C14.3132 37.9542 14.4311 37.7787 14.7983 37.4358C15.7212 36.5739 16.8793 36.3418 18.1029 36.7729ZM51.9428 38.1749V39.7943L51.5891 39.6598C50.8823 39.391 50.4508 39.1121 49.9189 38.5801C49.3871 38.048 49.1083 37.6163 48.8396 36.9092L48.7052 36.5554H50.324H51.9428V38.1749ZM56.4571 38.249V39.9425H55.3285H54.1999V38.249V36.5554H55.3285H56.4571V38.249ZM60.9714 38.249V39.9425H59.8428H58.7142V38.249V36.5554H59.8428H60.9714V38.249ZM65.4857 38.249V39.9425H64.3571H63.2285V38.249V36.5554H64.3571H65.4857V38.249ZM16.5445 40.355C16.8341 40.6449 16.9569 40.9066 16.9569 41.2348C16.9569 41.6603 16.5321 42.1269 12.1934 46.4675C7.85461 50.8079 7.38823 51.2328 6.9629 51.2328C6.3213 51.2328 5.6711 50.5824 5.6711 49.9405C5.6711 49.515 6.09587 49.0484 10.4345 44.7079C14.7734 40.3675 15.2397 39.9425 15.6651 39.9425C15.9932 39.9425 16.2548 40.0653 16.5445 40.355ZM35.4802 43.5412C35.3102 43.6603 35.046 44.1506 34.8756 44.6626C34.4127 46.054 33.7416 46.7167 32.7953 46.7167C32.576 46.7167 32.271 46.8046 32.1176 46.9122C31.8805 47.0783 31.4364 47.0791 29.1589 46.9175C25.5341 46.6603 25.6085 46.6576 25.2032 47.0632L24.8569 47.4095V50.7073C24.8569 54.5399 24.951 55.0037 25.9262 55.9793C26.3521 56.4055 26.748 56.6432 27.2797 56.7923C27.785 56.934 30.8859 57.1714 36.749 57.5169C44.79 57.9907 45.4937 58.0131 45.8106 57.8054C45.9997 57.6815 46.1949 57.418 46.2447 57.22C46.379 56.6845 44.0004 48.4176 43.6223 48.106C43.4275 47.9452 42.9177 47.8407 41.9927 47.7712C40.7102 47.675 40.637 47.6518 40.4454 47.2811C40.2262 46.8571 39.9758 46.7167 39.4394 46.7167C38.5497 46.7167 37.8477 46.0181 37.4185 44.7055C37.0887 43.6967 36.7484 43.3296 36.1427 43.3296C35.9445 43.3296 35.6464 43.4249 35.4802 43.5412ZM36.4308 47.6411C36.5806 47.8219 36.5714 47.9008 36.3774 48.0947C36.1585 48.3139 36.1269 48.3139 35.9079 48.0947C35.714 47.9008 35.7048 47.8219 35.8546 47.6411C35.9545 47.5209 36.0841 47.4224 36.1427 47.4224C36.2012 47.4224 36.3309 47.5209 36.4308 47.6411ZM47.7549 48.212C47.4016 48.5654 47.3921 48.6194 47.4795 49.7582C47.6691 52.226 48.63 54.2704 50.4611 56.1022C51.7441 57.3858 52.9208 58.1266 54.5526 58.6778L55.6812 59.059L62.8406 59.1059L70 59.1526V58.0152V56.878H63.3922C57.2493 56.878 56.7069 56.8581 55.6827 56.5962C54.2635 56.233 53.0313 55.5371 52.0252 54.5305C51.1021 53.6072 50.6196 52.8407 50.1552 51.5608C49.5612 49.9239 48.3557 50.1038 59.9133 50.1038H70V48.9748V47.8457H59.0606H48.121L47.7549 48.212ZM31.2052 49.3246C34.5235 49.5595 34.3619 49.4847 34.8739 51.0237C35.1964 51.9931 35.5459 52.3619 36.1427 52.3619C36.7322 52.3619 37.0893 51.992 37.403 51.0566C37.8581 49.6993 37.6812 49.7832 39.8478 49.898C40.8982 49.9538 41.8333 50.0461 41.9257 50.1032C42.0999 50.2109 43.6634 55.4698 43.5538 55.5795C43.4996 55.6338 36.7249 55.2643 30.9935 54.8946C29.9073 54.8244 28.7756 54.7657 28.4787 54.764C28.0725 54.7618 27.8366 54.6589 27.5264 54.3485L27.1141 53.936V51.526V49.1159L27.7136 49.118C28.0434 49.1192 29.6146 49.2122 31.2052 49.3246ZM25.7378 60.7598C26.8788 61.2966 28.3328 61.6194 32.1221 62.177C33.5187 62.3826 34.7408 62.5743 34.8378 62.603C34.9699 62.6423 35.0141 63.2594 35.0141 65.0655C35.0141 67.4361 35.0085 67.4812 34.6678 67.8219L34.3216 68.1683H29.3712H24.4209L24.0747 67.8219L23.7283 67.4755V63.5008V59.526L24.2212 59.9021C24.4924 60.109 25.1749 60.495 25.7378 60.7598Z" fill="white"/>
<path fill-rule="evenodd" clip-rule="evenodd" d="M7.14596 17.7084C6.95551 17.8989 6.79962 18.1713 6.79962 18.3137C6.79962 18.7475 6.38134 20.2197 6.08058 20.8447C5.39102 22.2773 4.01105 23.4909 2.4989 23.9943C1.52536 24.3185 1.15674 24.6675 1.15674 25.2652C1.15674 25.8469 1.5248 26.2169 2.33906 26.4538C4.60906 27.114 6.33959 29.2487 6.74785 31.892C7.01166 33.6004 8.84475 33.6004 9.10855 31.892C9.51681 29.2487 11.2473 27.114 13.5173 26.4538C14.3316 26.2169 14.6997 25.8469 14.6997 25.2652C14.6997 24.6675 14.331 24.3185 13.3575 23.9943C11.8454 23.4909 10.4654 22.2773 9.77582 20.8447C9.47506 20.2197 9.05678 18.7475 9.05678 18.3137C9.05678 17.8985 8.42054 17.3619 7.9282 17.3619C7.65339 17.3619 7.36419 17.4899 7.14596 17.7084ZM8.39874 22.9351C8.61868 23.2834 9.21513 23.9503 9.72412 24.4167L10.6494 25.265L9.72412 26.1134C9.21513 26.5798 8.61868 27.2466 8.39874 27.5949C8.17881 27.9432 7.96706 28.2282 7.92827 28.2282C7.88947 28.2282 7.67773 27.9432 7.45779 27.5949C7.23786 27.2466 6.64141 26.5798 6.13242 26.1134L5.20713 25.265L6.13242 24.4167C6.64141 23.9503 7.23786 23.2834 7.45779 22.9351C7.67773 22.5868 7.88947 22.3019 7.92827 22.3019C7.96706 22.3019 8.17881 22.5868 8.39874 22.9351Z" fill="#DB3138"/>
</svg>
